<?xml version="1.0" standalone="no"?>
<!DOCTYPE svg PUBLIC "-//W3C//DTD SVG 20010904//EN"
 "http://www.w3.org/TR/2001/REC-SVG-20010904/DTD/svg10.dtd">
<svg version="1.0" xmlns="http://www.w3.org/2000/svg"
 width="512.000000pt" height="512.000000pt" viewBox="0 0 512.000000 512.000000"
 preserveAspectRatio="xMidYMid meet">

<g transform="translate(0.000000,512.000000) scale(0.100000,-0.100000)"
fill="#000000" stroke="none">
<path d="M1840 4994 c-563 -138 -550 -133 -550 -216 0 -36 7 -47 65 -107 l64
-66 -709 -710 -710 -710 0 -433 0 -434 29 -29 c23 -23 38 -29 73 -29 l43 0
575 572 c316 315 724 721 907 903 l332 329 70 -67 c71 -69 92 -77 145 -57 14
5 32 19 40 32 19 29 256 1004 256 1053 0 50 -45 95 -92 94 -18 -1 -260 -57
-538 -125z m315 -439 l-77 -315 -33 29 c-19 16 -43 32 -55 36 -60 19 -68 12
-530 -451 -245 -245 -628 -626 -852 -846 l-408 -400 1 248 0 249 680 674 680
674 32 -30 c59 -56 87 -63 142 -38 50 24 70 87 44 138 -6 12 -50 61 -97 109
-47 48 -84 89 -81 91 6 6 624 154 628 151 1 -1 -32 -145 -74 -319z"/>
<path d="M4153 5109 c-48 -14 -90 -61 -168 -192 l-69 -116 -149 -37 c-81 -20
-162 -46 -180 -58 -47 -32 -77 -91 -77 -154 0 -69 15 -95 124 -224 l92 -107
-11 -143 c-7 -88 -8 -158 -3 -183 19 -84 96 -145 184 -145 34 0 83 15 182 56
154 64 127 65 307 -10 125 -52 175 -57 241 -26 24 12 54 39 70 62 26 37 29 50
29 117 0 42 -3 121 -7 176 l-8 100 91 105 c130 149 151 206 110 295 -33 74
-73 98 -222 134 -74 18 -142 35 -151 38 -9 2 -51 59 -92 127 -42 67 -86 132
-98 143 -50 47 -123 63 -195 42z m151 -338 c47 -76 93 -142 103 -146 10 -4 85
-24 166 -44 l148 -36 -107 -125 -106 -125 6 -135 c4 -74 9 -152 13 -172 l5
-37 -142 60 c-78 32 -155 59 -172 59 -16 0 -90 -25 -164 -56 -74 -31 -138 -54
-141 -51 -3 4 0 68 6 144 6 76 11 149 11 161 0 13 -41 71 -106 148 -58 69
-104 127 -102 128 1 2 70 20 152 40 82 20 158 44 168 53 10 9 53 74 96 145 42
70 78 128 78 128 1 0 40 -62 88 -139z"/>
<path d="M3344 3310 c-12 -4 -31 -21 -43 -36 -20 -26 -21 -35 -21 -340 l0
-314 -791 -2 -791 -3 -29 -33 -29 -32 0 -265 0 -265 -791 -2 -791 -3 -29 -33
-29 -32 0 -936 c0 -1016 -2 -976 55 -1002 20 -9 505 -12 2065 -12 l2040 0 30
28 c20 17 33 40 37 64 5 33 2 41 -30 73 l-35 35 -341 0 -341 0 0 1460 0 1460
720 0 720 0 0 -1520 c0 -1654 -3 -1562 55 -1588 33 -15 57 -15 90 0 58 26 55
-72 55 1652 l0 1586 -29 32 -29 33 -849 2 c-466 1 -858 -2 -869 -7z m-64
-2000 l0 -1110 -720 0 -720 0 0 1110 0 1110 720 0 720 0 0 -1110z m-1640 -305
l0 -805 -720 0 -720 0 0 805 0 805 720 0 720 0 0 -805z"/>
<path d="M2485 1423 c-111 -40 -169 -114 -170 -216 0 -53 3 -61 29 -84 57 -49
147 -11 160 66 8 49 34 72 83 73 53 1 79 -15 92 -55 22 -64 -18 -118 -173
-235 -116 -88 -174 -145 -192 -189 -8 -19 -14 -69 -14 -122 0 -127 -15 -121
297 -121 l252 0 16 30 c20 39 19 83 -4 111 -19 23 -24 24 -190 27 -126 2 -171
7 -171 15 0 26 34 59 133 129 174 123 233 197 244 304 11 107 -41 200 -141
251 -68 35 -178 42 -251 16z"/>
<path d="M802 1421 c-94 -32 -152 -109 -152 -200 0 -67 25 -86 107 -79 62 5
83 23 83 68 0 41 29 60 88 60 43 0 54 -4 72 -27 18 -23 21 -37 17 -76 -5 -58
-21 -76 -73 -84 -55 -8 -74 -28 -74 -78 0 -48 22 -75 62 -75 38 0 87 -20 98
-40 18 -34 12 -135 -9 -161 -17 -21 -28 -24 -91 -24 -63 0 -74 3 -91 24 -10
13 -19 33 -19 45 0 34 -15 48 -59 56 -48 9 -110 -2 -122 -22 -15 -22 -9 -91
10 -134 25 -55 94 -111 160 -131 77 -22 219 -14 283 17 95 44 148 138 148 259
-1 73 -28 132 -78 168 l-39 29 33 38 c32 37 54 104 54 162 0 99 -60 181 -151
208 -71 22 -191 20 -257 -3z"/>
<path d="M4093 1382 c-98 -60 -119 -88 -107 -136 3 -15 17 -34 31 -43 22 -15
27 -15 59 0 l34 17 0 -324 c0 -273 2 -325 15 -336 24 -20 83 -29 120 -19 66
19 65 10 65 452 l0 398 -25 24 c-41 42 -85 34 -192 -33z"/>
<path d="M4509 171 c-31 -31 -39 -83 -19 -122 13 -24 61 -49 94 -49 38 0 86
48 93 92 5 33 2 41 -30 73 -46 46 -95 49 -138 6z"/>
</g>
</svg>
